<svg width="24" height="24" viewBox="0 0 24 24" fill="none" xmlns="http://www.w3.org/2000/svg">
<path d="M17.0059 2.01416C16.8359 2.01416 16.6549 2.05616 16.5059 2.13916L7.50586 7.13916C7.18886 7.31516 7.00586 7.65116 7.00586 8.01416V9.38916L3.56786 11.1082C3.22986 11.2772 3.00586 11.6352 3.00586 12.0142C3.00586 13.0142 3.00586 19.0142 3.00586 20.0142C3.00586 20.5662 3.45386 21.0142 4.00586 21.0142H8.00586H11.9439C12.4959 21.0142 12.9439 20.5662 12.9439 20.0142C12.9439 19.4622 12.4959 19.0142 11.9439 19.0142H9.00586V10.0142V8.60815L17.2869 4.01416H19.0059V19.0142H16.0369C15.4849 19.0142 15.0369 19.4622 15.0369 20.0142C15.0369 20.5662 15.4849 21.0142 16.0369 21.0142H20.0059C20.5579 21.0142 21.0059 20.5662 21.0059 20.0142V3.01416C21.0059 2.46216 20.5579 2.01416 20.0059 2.01416H17.0059ZM16.0059 7.01416C15.4539 7.01416 15.0059 7.46216 15.0059 8.01416C15.0059 8.56616 15.4539 9.01416 16.0059 9.01416C16.5579 9.01416 17.0059 8.56616 17.0059 8.01416C17.0059 7.46216 16.5579 7.01416 16.0059 7.01416ZM12.0059 11.0142C11.4539 11.0142 11.0059 11.4622 11.0059 12.0142C11.0059 12.5662 11.4539 13.0142 12.0059 13.0142C12.5579 13.0142 13.0059 12.5662 13.0059 12.0142C13.0059 11.4622 12.5579 11.0142 12.0059 11.0142ZM16.0059 11.0142C15.4539 11.0142 15.0059 11.4622 15.0059 12.0142C15.0059 12.5662 15.4539 13.0142 16.0059 13.0142C16.5579 13.0142 17.0059 12.5662 17.0059 12.0142C17.0059 11.4622 16.5579 11.0142 16.0059 11.0142ZM7.00586 11.6392V19.0142H5.00586C5.00586 17.3462 5.00586 14.0102 5.00586 12.6392L7.00586 11.6392ZM12.0059 15.0142C11.4539 15.0142 11.0059 15.4622 11.0059 16.0142C11.0059 16.5662 11.4539 17.0142 12.0059 17.0142C12.5579 17.0142 13.0059 16.5662 13.0059 16.0142C13.0059 15.4622 12.5579 15.0142 12.0059 15.0142ZM16.0059 15.0142C15.4539 15.0142 15.0059 15.4622 15.0059 16.0142C15.0059 16.5662 15.4539 17.0142 16.0059 17.0142C16.5579 17.0142 17.0059 16.5662 17.0059 16.0142C17.0059 15.4622 16.5579 15.0142 16.0059 15.0142Z" fill="#922945"/>
</svg>
