<svg width="30" height="30" viewBox="0 0 30 30" fill="none" xmlns="http://www.w3.org/2000/svg">
<mask id="mask0_3625_7349" style="mask-type:alpha" maskUnits="userSpaceOnUse" x="3" y="7" width="24" height="16">
<path fill-rule="evenodd" clip-rule="evenodd" d="M5 10C4.3125 10 3.75 9.4375 3.75 8.75C3.75 8.0625 4.3125 7.5 5 7.5H25C25.6875 7.5 26.25 8.0625 26.25 8.75C26.25 9.4375 25.6875 10 25 10H5ZM5 16.25H25C25.6875 16.25 26.25 15.6875 26.25 15C26.25 14.3125 25.6875 13.75 25 13.75H5C4.3125 13.75 3.75 14.3125 3.75 15C3.75 15.6875 4.3125 16.25 5 16.25ZM5 22.5H25C25.6875 22.5 26.25 21.9375 26.25 21.25C26.25 20.5625 25.6875 20 25 20H5C4.3125 20 3.75 20.5625 3.75 21.25C3.75 21.9375 4.3125 22.5 5 22.5Z" fill="black"/>
</mask>
<g mask="url(#mask0_3625_7349)">
<rect width="30" height="30" fill="#1F1F1F"/>
</g>
</svg>
