<svg width="18" height="20" viewBox="0 0 18 20" fill="none" xmlns="http://www.w3.org/2000/svg">
<path d="M6.23047 6.81348H4.2002C3.08009 6.81348 2.51962 6.81348 2.0918 7.03146C1.71547 7.22321 1.40973 7.52895 1.21799 7.90527C1 8.3331 1 8.89357 1 10.0137V15.6137C1 16.7338 1 17.2935 1.21799 17.7214C1.40973 18.0977 1.71547 18.404 2.0918 18.5957C2.5192 18.8135 3.07902 18.8135 4.19694 18.8135H13.8031C14.921 18.8135 15.48 18.8135 15.9074 18.5957C16.2837 18.404 16.5905 18.0977 16.7822 17.7214C17 17.294 17 16.735 17 15.6171V10.0104C17 8.89247 17 8.33268 16.7822 7.90527C16.5905 7.52895 16.2837 7.22321 15.9074 7.03146C15.4796 6.81348 14.9203 6.81348 13.8002 6.81348H11.7689M6.23047 6.81348H11.7689M6.23047 6.81348C6.10302 6.81348 6 6.71016 6 6.58271V3.81348C6 2.15662 7.34315 0.813477 9 0.813477C10.6569 0.813477 12 2.15662 12 3.81348V6.58271C12 6.71016 11.8964 6.81348 11.7689 6.81348" stroke="#DAAC77" stroke-linecap="round" stroke-linejoin="round"/>
</svg>
