<svg width="24" height="25" viewBox="0 0 24 25" fill="none" xmlns="http://www.w3.org/2000/svg">
<path d="M8.38028 9.66683C9.07627 11.1164 10.0251 12.4751 11.2266 13.6767C12.4282 14.8782 13.7869 15.827 15.2365 16.523C15.3612 16.5829 15.4235 16.6128 15.5024 16.6358C15.7828 16.7176 16.127 16.6589 16.3644 16.4888C16.4313 16.441 16.4884 16.3838 16.6027 16.2695C16.9523 15.9199 17.1271 15.7451 17.3029 15.6308C17.9658 15.1998 18.8204 15.1998 19.4833 15.6308C19.6591 15.7451 19.8339 15.9199 20.1835 16.2695L20.3783 16.4644C20.9098 16.9958 21.1755 17.2616 21.3198 17.5469C21.6069 18.1145 21.6069 18.7848 21.3198 19.3523C21.1755 19.6377 20.9098 19.9034 20.3783 20.4349L20.2207 20.5925C19.6911 21.1221 19.4263 21.3869 19.0662 21.5892C18.6667 21.8136 18.0462 21.975 17.588 21.9736C17.1751 21.9724 16.8928 21.8923 16.3284 21.7321C13.295 20.8711 10.4326 19.2466 8.04466 16.8586C5.65668 14.4707 4.03221 11.6083 3.17124 8.57491C3.01103 8.01047 2.93092 7.72824 2.9297 7.3153C2.92833 6.85707 3.08969 6.23658 3.31411 5.83708C3.51636 5.47704 3.78117 5.21223 4.3108 4.68261L4.46843 4.52497C4.99987 3.99353 5.2656 3.72781 5.55098 3.58347C6.11854 3.2964 6.7888 3.2964 7.35636 3.58347C7.64174 3.72781 7.90747 3.99353 8.43891 4.52497L8.63378 4.71984C8.98338 5.06945 9.15819 5.24425 9.27247 5.42003C9.70347 6.08292 9.70347 6.9375 9.27247 7.60039C9.15819 7.77617 8.98338 7.95097 8.63378 8.30058C8.51947 8.41489 8.46231 8.47205 8.41447 8.53886C8.24446 8.77629 8.18576 9.12055 8.26748 9.4009C8.29048 9.47979 8.32041 9.54214 8.38028 9.66683Z" stroke="#DAAC77" stroke-linecap="round" stroke-linejoin="round"/>
</svg>
