<svg width="25" height="24" viewBox="0 0 25 24" fill="none" xmlns="http://www.w3.org/2000/svg">
<mask id="mask0_2_1559" style="mask-type:alpha" maskUnits="userSpaceOnUse" x="3" y="3" width="19" height="18">
<path d="M19.7364 15.2748L17.1912 14.9842C16.58 14.914 15.9788 15.1245 15.5479 15.5553L13.7042 17.3991C10.8685 15.9561 8.54383 13.6415 7.10092 10.7957L8.95465 8.94199C9.38552 8.51112 9.59594 7.90991 9.5258 7.29868L9.23522 4.77358C9.11497 3.76154 8.26326 3 7.2412 3H5.50771C4.37544 3 3.43354 3.9419 3.50368 5.07419C4.03475 13.6315 10.8785 20.4652 19.4257 20.9963C20.558 21.0665 21.4999 20.1246 21.4999 18.9923V17.2588C21.5099 16.2467 20.7484 15.395 19.7364 15.2748Z" fill="black"/>
</mask>
<g mask="url(#mask0_2_1559)">
<rect x="0.5" width="24" height="24" fill="#003830"/>
</g>
</svg>
