<svg width="53" height="54" viewBox="0 0 53 54" fill="none" xmlns="http://www.w3.org/2000/svg">
<path d="M44.8171 8.36035C39.878 3.43847 33.2927 0.704102 26.3415 0.704102C11.8902 0.704102 0.182924 12.3708 0.182924 26.7718C0.182924 31.3291 1.46341 35.8864 3.65854 39.7145L0 53.2041L13.9024 49.5583C17.7439 51.5635 21.9512 52.6572 26.3415 52.6572C40.7927 52.6572 52.5 40.9906 52.5 26.5895C52.3171 19.8447 49.7561 13.2822 44.8171 8.36035ZM38.9634 36.0687C38.4146 37.527 35.8537 38.9854 34.5732 39.1676C33.4756 39.3499 32.0122 39.3499 30.5488 38.9854C29.6341 38.6208 28.3537 38.2562 26.8902 37.527C20.3049 34.7926 16.0976 28.2301 15.7317 27.6833C15.3659 27.3187 12.9878 24.2197 12.9878 20.9385C12.9878 17.6572 14.6341 16.1989 15.1829 15.4697C15.7317 14.7406 16.4634 14.7406 17.0122 14.7406C17.378 14.7406 17.9268 14.7406 18.2927 14.7406C18.6585 14.7406 19.2073 14.5583 19.7561 15.8343C20.3049 17.1104 21.5854 20.3916 21.7683 20.5739C21.9512 20.9385 21.9512 21.3031 21.7683 21.6676C21.5854 22.0322 21.4024 22.3968 21.0366 22.7614C20.6707 23.126 20.3049 23.6728 20.1219 23.8551C19.7561 24.2197 19.3902 24.5843 19.7561 25.1312C20.1219 25.8603 21.4024 27.8656 23.4146 29.6885C25.9756 31.876 27.9878 32.6051 28.7195 32.9697C29.4512 33.3343 29.8171 33.152 30.1829 32.7874C30.5488 32.4228 31.8293 30.9645 32.1951 30.2354C32.561 29.5062 33.1097 29.6885 33.6585 29.8708C34.2073 30.0531 37.5 31.6937 38.0488 32.0583C38.7805 32.4229 39.1463 32.6051 39.3293 32.7874C39.5122 33.3343 39.5122 34.6103 38.9634 36.0687Z" fill="white"/>
</svg>
