<svg width="722" height="242" viewBox="0 0 722 242" fill="none" xmlns="http://www.w3.org/2000/svg">
<path d="M48.6107 240H182.492M48.6107 240C48.6107 199.525 46.4845 128.964 86.6876 86.8038M48.6107 240H2.79026C2.35381 240 2 239.646 2 239.21V2.79025C2 2.35381 2.35381 2 2.79025 2H360.21C360.646 2 361 2.35381 361 2.79025V239.21C361 239.646 360.646 240 360.21 240H316.373M182.824 48.4197V176.551M182.824 48.4197C138.096 47.8743 107.747 64.719 86.6876 86.8038M182.824 48.4197C209.572 48.4197 248.237 55.581 277.172 87.8075M316.373 240H182.492M316.373 240C316.373 162.745 302.278 115.769 277.172 87.8075M182.492 240L182.824 176.551M182.824 176.551L273.729 91.2502L277.172 87.8075M182.824 176.551L86.6876 86.8038" stroke="#DAAC77" stroke-width="3"/>
<path d="M407.611 240H541.492M407.611 240C407.611 199.525 405.484 128.964 445.688 86.8038M407.611 240H361.79C361.354 240 361 239.646 361 239.21V2.79025C361 2.35381 361.354 2 361.79 2H719.21C719.646 2 720 2.35381 720 2.79025V239.21C720 239.646 719.646 240 719.21 240H675.373M541.824 48.4197V176.551M541.824 48.4197C497.096 47.8743 466.747 64.719 445.688 86.8038M541.824 48.4197C568.572 48.4197 607.237 55.581 636.172 87.8075M675.373 240H541.492M675.373 240C675.373 162.745 661.278 115.769 636.172 87.8075M541.492 240L541.824 176.551M541.824 176.551L632.729 91.2502L636.172 87.8075M541.824 176.551L445.688 86.8038" stroke="#DAAC77" stroke-width="3"/>
</svg>
