<svg width="363" height="242" viewBox="0 0 363 242" fill="none" xmlns="http://www.w3.org/2000/svg">
<path d="M48.6107 240H182.492M48.6107 240C48.6107 199.525 46.4845 128.964 86.6876 86.8038M48.6107 240H2.79026C2.35381 240 2 239.646 2 239.21V2.79025C2 2.35381 2.35381 2 2.79025 2H360.21C360.646 2 361 2.35381 361 2.79025V239.21C361 239.646 360.646 240 360.21 240H316.373M182.824 48.4197V176.551M182.824 48.4197C138.096 47.8743 107.747 64.719 86.6876 86.8038M182.824 48.4197C209.572 48.4197 248.237 55.581 277.172 87.8075M316.373 240H182.492M316.373 240C316.373 162.745 302.278 115.769 277.172 87.8075M182.492 240L182.824 176.551M182.824 176.551L273.729 91.2502L277.172 87.8075M182.824 176.551L86.6876 86.8038" stroke="#DAAC77" stroke-width="3"/>
</svg>
