<svg width="26" height="22" viewBox="0 0 26 22" fill="none" xmlns="http://www.w3.org/2000/svg">
<path d="M4.25 12.25H8M0.5 7.25L3 8.5L4.5883 3.73509C4.91615 2.75156 5.08007 2.2598 5.38411 1.89623C5.6526 1.57517 5.9974 1.32665 6.38688 1.17347C6.82795 1 7.34631 1 8.38304 1H17.617C18.6537 1 19.1721 1 19.6131 1.17347C20.0026 1.32665 20.3474 1.57517 20.6159 1.89623C20.9199 2.2598 21.0839 2.75156 21.4117 3.73509L23 8.5L25.5 7.25M18 12.25H21.75M6.5 8.5H19.5C21.6002 8.5 22.6503 8.5 23.4525 8.90873C24.1581 9.26825 24.7317 9.84193 25.0913 10.5475C25.5 11.3497 25.5 12.3998 25.5 14.5V17.875C25.5 18.4558 25.5 18.7462 25.452 18.9877C25.2547 19.9795 24.4795 20.7547 23.4877 20.952C23.2462 21 22.9558 21 22.375 21H21.75C20.3693 21 19.25 19.8807 19.25 18.5C19.25 18.1548 18.9702 17.875 18.625 17.875H7.375C7.02982 17.875 6.75 18.1548 6.75 18.5C6.75 19.8807 5.63071 21 4.25 21H3.625C3.04418 21 2.75377 21 2.51227 20.952C1.52055 20.7547 0.745303 19.9795 0.548037 18.9877C0.5 18.7462 0.5 18.4558 0.5 17.875V14.5C0.5 12.3998 0.5 11.3497 0.908726 10.5475C1.26825 9.84193 1.84193 9.26825 2.54754 8.90873C3.3497 8.5 4.3998 8.5 6.5 8.5Z" stroke="white" stroke-width="0.7" stroke-linecap="round" stroke-linejoin="round"/>
</svg>
