<svg width="30" height="30" viewBox="0 0 30 30" fill="none" xmlns="http://www.w3.org/2000/svg">
<path d="M0.833008 5.36658C0.833008 3.77977 0.833008 2.98636 1.14182 2.38028C1.41346 1.84715 1.84691 1.41371 2.38003 1.14207C2.98612 0.833252 3.77953 0.833252 5.36634 0.833252H16.133C17.7198 0.833252 18.5132 0.833252 19.1193 1.14207C19.6524 1.41371 20.0859 1.84715 20.3575 2.38028C20.6663 2.98636 20.6663 3.77977 20.6663 5.36659V16.1333C20.6663 17.7201 20.6663 18.5135 20.3575 19.1196C20.0859 19.6527 19.6524 20.0861 19.1193 20.3578C18.5132 20.6666 17.7198 20.6666 16.133 20.6666H5.36634C3.77953 20.6666 2.98612 20.6666 2.38003 20.3578C1.84691 20.0861 1.41346 19.6527 1.14182 19.1196C0.833008 18.5135 0.833008 17.7201 0.833008 16.1333V5.36658Z" stroke="white" stroke-linecap="round" stroke-linejoin="round"/>
<path d="M9.33301 13.8666C9.33301 12.2798 9.33301 11.4864 9.64182 10.8803C9.91346 10.3472 10.3469 9.91371 10.88 9.64207C11.4861 9.33325 12.2795 9.33325 13.8663 9.33325H24.633C26.2198 9.33325 27.0132 9.33325 27.6193 9.64207C28.1524 9.91371 28.5859 10.3472 28.8575 10.8803C29.1663 11.4864 29.1663 12.2798 29.1663 13.8666V24.6333C29.1663 26.2201 29.1663 27.0135 28.8575 27.6196C28.5859 28.1527 28.1524 28.5861 27.6193 28.8578C27.0132 29.1666 26.2198 29.1666 24.633 29.1666H13.8663C12.2795 29.1666 11.4861 29.1666 10.88 28.8578C10.3469 28.5861 9.91346 28.1527 9.64182 27.6196C9.33301 27.0135 9.33301 26.2201 9.33301 24.6333V13.8666Z" stroke="white" stroke-linecap="round" stroke-linejoin="round"/>
</svg>
