<svg width="30" height="28" viewBox="0 0 30 28" fill="none" xmlns="http://www.w3.org/2000/svg">
<path d="M8.62467 6.91667H12.5205M8.62467 12.5833H12.5205M8.62467 18.25H12.5205M17.4788 6.91667H21.3747M17.4788 12.5833H21.3747M17.4788 18.25H21.3747M26.333 26.75V5.78333C26.333 4.19652 26.333 3.40311 26.0242 2.79703C25.7526 2.2639 25.3191 1.83046 24.786 1.55881C24.1799 1.25 23.3865 1.25 21.7997 1.25H8.19967C6.61286 1.25 5.81945 1.25 5.21337 1.55881C4.68024 1.83046 4.2468 2.2639 3.97516 2.79703C3.66634 3.40311 3.66634 4.19652 3.66634 5.78333V26.75M29.1663 26.75H0.833008" stroke="white" stroke-linecap="round" stroke-linejoin="round"/>
</svg>
