<svg width="28" height="22" viewBox="0 0 28 22" fill="none" xmlns="http://www.w3.org/2000/svg">
<path d="M26.75 19.4999C26.75 19.4999 25.0636 18.8348 23.9167 18.5112C16.6629 16.4646 11.3371 22.5353 4.08333 20.4887C2.93642 20.1651 1.25 19.4999 1.25 19.4999M26.75 10.9999C26.75 10.9999 25.0636 10.3348 23.9167 10.0112C16.6629 7.96456 11.3371 14.0353 4.08333 11.9887C2.93642 11.6651 1.25 10.9999 1.25 10.9999M26.75 2.49992C26.75 2.49992 25.0636 1.83477 23.9167 1.51117C16.6629 -0.535441 11.3371 5.53528 4.08333 3.48867C2.93642 3.16507 1.25 2.49992 1.25 2.49992" stroke="white" stroke-linecap="round" stroke-linejoin="round"/>
</svg>
