<svg width="27" height="30" viewBox="0 0 27 30" fill="none" xmlns="http://www.w3.org/2000/svg">
<path d="M25.7497 2.24992L17.2497 2.24992M25.7497 7.91659L17.2497 7.91659M25.7497 13.5833L17.2497 13.5833M3.79134 17.4901V4.37492C3.79134 2.41891 5.377 0.833252 7.33301 0.833252C9.28902 0.833252 10.8747 2.41891 10.8747 4.37492V17.4901C12.5832 18.6337 13.708 20.5813 13.708 22.7916C13.708 26.3124 10.8538 29.1666 7.33301 29.1666C3.81219 29.1666 0.958008 26.3124 0.958008 22.7916C0.958008 20.5813 2.08286 18.6337 3.79134 17.4901ZM8.74967 22.7916C8.74967 23.574 8.11541 24.2083 7.33301 24.2083C6.5506 24.2083 5.91634 23.574 5.91634 22.7916C5.91634 22.0092 6.5506 21.3749 7.33301 21.3749C8.11541 21.3749 8.74967 22.0092 8.74967 22.7916Z" stroke="white" stroke-linecap="round" stroke-linejoin="round"/>
</svg>
