<svg width="62" height="61" viewBox="0 0 62 61" fill="none" xmlns="http://www.w3.org/2000/svg">
<path fill-rule="evenodd" clip-rule="evenodd" d="M44.9767 54.5789C40.9635 55.5822 29.7267 52.1711 22.503 47.1546C19.0918 44.7467 15.2793 43.9441 12.2694 43.9441C11.6675 41.9375 11.4668 40.1316 11.2661 38.125C14.276 38.5263 17.4865 38.5263 20.6971 38.5263C37.151 38.5263 53.2036 34.9145 58.4207 33.7105C57.4175 42.5395 52.401 50.1645 44.9767 54.5789ZM17.2859 55.3816C21.299 57.5888 25.7135 58.7928 30.5293 58.7928C33.9405 58.7928 37.3517 58.1908 40.3615 56.9868C34.5425 56.1842 26.7168 53.1743 21.299 49.3618C18.6905 47.5559 15.6806 46.7533 13.0721 46.5526C14.0753 49.1612 15.48 52.1711 17.2859 55.3816ZM7.6543 46.7533C9.25956 48.9605 11.0655 50.9671 13.0721 52.5724C12.0688 50.5658 11.2661 48.3586 10.6642 46.352C9.46022 46.352 8.45693 46.5526 7.6543 46.7533ZM10.0622 43.9441C8.45693 44.1447 7.05232 44.3454 6.24969 44.5461C4.84509 42.1382 3.8418 39.5296 3.23982 36.7204C5.04574 37.1217 7.05232 37.523 9.0589 37.7237C9.0589 39.7303 9.46022 41.9375 10.0622 43.9441ZM7.85495 29.4967C8.25627 29.6974 8.65759 29.898 9.25956 29.898C9.0589 31.7039 8.85824 33.5099 9.0589 35.3158C6.85167 35.1151 4.84509 34.7138 2.83851 34.1118C2.63785 32.9079 2.63785 31.7039 2.63785 30.2993C2.63785 28.0921 2.83851 26.0855 3.44048 24.0789C4.04245 26.0855 5.44706 28.2928 7.85495 29.4967ZM20.4964 4.21382C13.0721 7.02303 7.25298 13.0428 4.24311 20.2664C4.64443 22.0724 6.04903 25.8849 8.85824 27.2895C9.0589 27.2895 9.25956 27.4901 9.46022 27.4901C11.4668 16.8553 17.0852 8.62829 20.4964 4.21382ZM49.1905 9.43092C41.7661 10.6349 34.1411 15.4507 26.5161 20.2664C22.7036 22.6743 19.2925 24.8816 15.8813 26.6875C14.4767 27.4901 13.0721 27.8914 11.8681 27.8914C14.0753 14.2467 23.105 4.61513 24.7102 3.00987C26.5161 2.60855 28.5227 2.40789 30.5293 2.40789C37.753 2.40789 44.174 5.01645 49.1905 9.43092ZM58.6214 30.5C58.6214 23.2763 55.8122 16.6546 51.1971 11.6382C43.9734 12.0395 35.5457 17.2566 27.7201 22.273C23.9076 24.6809 20.2957 26.8882 16.8846 28.6941C14.878 29.6974 13.0721 30.2993 11.2661 30.2993C11.0655 32.1053 11.0655 33.9112 11.0655 35.7171C30.5293 37.7237 53.605 32.5066 58.4207 31.3026C58.6214 30.9013 58.6214 30.7007 58.6214 30.5ZM30.5293 0C17.4865 0 6.24969 8.42763 1.83522 20.0658H1.63456V20.2664C0.631271 23.477 0.0292969 26.8882 0.0292969 30.5C0.0292969 47.3553 13.674 61 30.5293 61C47.3846 61 61.0293 47.3553 61.0293 30.5C61.0293 13.6447 47.3846 0 30.5293 0Z" fill="white"/>
</svg>
