<svg width="61" height="58" viewBox="0 0 61 58" fill="none" xmlns="http://www.w3.org/2000/svg">
<path fill-rule="evenodd" clip-rule="evenodd" d="M31.3133 48C29.0767 48 27.0433 46.9583 25.4167 45.0833C25.01 44.4583 24.4 44.0417 23.9933 43.4167C23.5867 43 23.18 42.5833 22.7733 41.9583C21.7567 40.9167 20.74 40.2917 19.7233 40.2917C18.7067 40.2917 17.69 40.9167 16.6733 41.9583C16.2667 42.375 15.86 42.7917 15.4533 43.4167C15.0467 44.0417 14.64 44.4583 14.03 45.0833C12.4033 46.9583 10.1667 47.7917 8.13333 47.7917C5.89667 47.7917 3.86333 46.75 2.23667 44.875C1.62667 44.25 1.22 43.625 0.61 43L0 42.375L1.83 40.7083L2.44 41.5417C2.84667 42.1667 3.45667 42.7917 3.86333 43.4167C5.08333 44.6667 6.50667 45.5 7.93 45.5C9.35333 45.5 10.7767 44.875 11.9967 43.4167C12.4033 43 12.81 42.375 13.2167 41.9583C13.6233 41.5417 14.03 40.9167 14.4367 40.5C15.86 38.8333 17.4867 38 19.3167 38C21.1467 38 22.7733 38.8333 24.1967 40.5C24.6033 40.9167 25.01 41.5417 25.4167 41.9583C25.8233 42.5833 26.23 43 26.6367 43.4167C27.8567 44.6667 29.28 45.5 30.7033 45.5C32.1267 45.5 33.55 44.875 34.77 43.4167C35.1767 43 35.5833 42.375 35.99 41.9583C36.3967 41.5417 36.8033 41.125 37.21 40.5C38.6333 38.8333 40.4633 38 42.09 38C43.92 38 45.5467 38.8333 47.1733 40.5C47.58 40.9167 47.9867 41.3333 48.19 41.75C48.5967 42.375 49.2067 42.7917 49.6133 43.4167C50.8333 44.6667 52.0533 45.2917 53.4767 45.2917C54.9 45.2917 56.12 44.875 57.1367 43.8333C57.95 43.2083 58.56 42.375 58.9667 41.5417L61 43.2083C60.39 44.0417 59.78 44.875 58.7633 45.7083C57.34 47.1667 55.51 48 53.2733 47.7917C51.24 47.7917 49.2067 46.9583 47.58 45.0833C46.97 44.4583 46.5633 43.8333 46.1567 43.2083C45.75 42.7917 45.5467 42.375 45.14 41.9583C44.1233 40.9167 43.1067 40.2917 42.09 40.2917C41.0733 40.2917 39.8533 40.9167 39.04 41.9583C38.6333 42.375 38.43 42.7917 38.0233 43.2083C37.6167 43.8333 37.0067 44.4583 36.6 44.875C35.5833 46.9583 33.55 48 31.3133 48Z" fill="white"/>
<path fill-rule="evenodd" clip-rule="evenodd" d="M31.3133 58C29.0767 58 27.0433 56.9583 25.4167 55.0833C25.01 54.4583 24.4 54.0417 23.9933 53.4167C23.5867 53 23.18 52.5833 22.7733 51.9583C21.7567 50.9167 20.74 50.2917 19.7233 50.2917C18.7067 50.2917 17.69 50.9167 16.6733 51.9583C16.2667 52.375 15.86 52.7917 15.4533 53.4167C15.0467 54.0417 14.64 54.4583 14.03 55.0833C12.6067 56.9583 10.37 58 8.33667 58C6.1 58 4.06667 56.9583 2.44 55.0833C1.83 54.4583 1.42333 53.8333 0.813333 53.2083L0 52.375L1.83 50.7083L2.44 51.5417C2.84667 52.1667 3.45667 52.7917 3.86333 53.4167C5.08333 54.6667 6.50667 55.5 7.93 55.5C9.35333 55.5 10.7767 54.875 11.9967 53.4167C12.4033 53 12.81 52.375 13.2167 51.9583C13.6233 51.5417 14.03 50.9167 14.4367 50.5C15.86 48.8333 17.4867 48 19.3167 48C21.1467 48 22.7733 48.8333 24.1967 50.5C24.6033 50.9167 25.01 51.5417 25.4167 51.9583C25.8233 52.5833 26.23 53 26.6367 53.4167C27.8567 54.6667 29.28 55.5 30.7033 55.5C32.1267 55.5 33.55 54.875 34.77 53.4167C35.1767 53 35.5833 52.375 35.99 51.9583C36.3967 51.5417 36.8033 51.125 37.21 50.5C38.6333 48.8333 40.4633 48 42.09 48C43.92 48 45.5467 48.8333 47.1733 50.5C47.58 50.9167 47.9867 51.3333 48.19 51.75C48.5967 52.375 49.2067 52.7917 49.6133 53.4167C50.8333 54.6667 52.0533 55.2917 53.4767 55.2917C54.9 55.2917 56.12 54.875 57.1367 53.8333C57.95 53.2083 58.56 52.375 58.9667 51.5417L61 53.2083C60.39 54.0417 59.78 54.875 58.7633 55.7083C57.1367 57.1667 55.51 58 53.2733 57.7917C53.2733 57.7917 53.2733 57.7917 53.07 57.7917C51.0367 57.7917 49.0033 56.9583 47.3767 55.0833C46.7667 54.4583 46.36 53.8333 45.9533 53.2083C45.5467 52.7917 45.3433 52.375 44.9367 51.9583C43.92 50.9167 42.9033 50.2917 41.8867 50.2917C40.87 50.2917 39.65 50.9167 38.8367 51.9583C38.43 52.375 38.2267 52.7917 37.82 53.2083C37.4133 53.8333 36.8033 54.4583 36.3967 54.875C35.5833 56.9583 33.55 58 31.3133 58Z" fill="white"/>
<path fill-rule="evenodd" clip-rule="evenodd" d="M20.977 39H18.4808V10.4C18.4808 10.2 18.8968 5.8 16.8167 3.6C15.9846 2.8 15.1526 2.4 13.9045 2.4C8.70417 2.4 8.49616 8.8 8.49616 9H6C6 8.8 6 4.4 8.91219 1.8C10.1603 0.6 11.8244 0 13.9045 0C15.7766 0 17.4407 0.8 18.6888 2C21.393 5 20.977 10.2 20.977 10.6V39Z" fill="white"/>
<path fill-rule="evenodd" clip-rule="evenodd" d="M43.7721 39H41.3101V10.4224C41.3101 10.2226 41.7204 5.82605 39.6688 3.62778C39.0532 2.82841 38.0274 2.42872 36.7964 2.42872C31.6672 2.42872 31.462 8.8237 31.462 9.02354H29C29 8.8237 29.2052 4.42715 31.8724 1.82919C33.3085 0.630134 34.9499 -0.169238 37.0016 0.0306047C38.8481 0.0306047 40.4894 0.829977 41.7204 2.02904C44.3876 5.02668 43.9773 10.2226 43.9773 10.6223L43.7721 39Z" fill="white"/>
<path d="M43 13H19V15H43V13Z" fill="white"/>
<path d="M43 23H19V25H43V23Z" fill="white"/>
<path d="M43 32H19V34H43V32Z" fill="white"/>
</svg>
