<svg width="72" height="59" viewBox="0 0 72 59" fill="none" xmlns="http://www.w3.org/2000/svg">
<path fill-rule="evenodd" clip-rule="evenodd" d="M3.35645 23.6667H69.3984V14.3333H3.35645V23.6667ZM71.9766 26H0.976562V12H71.9766V26Z" fill="white"/>
<path d="M30.8074 0.318668L20.9766 20L22.7572 20.9107L32.588 1.22936L30.8074 0.318668Z" fill="white"/>
<path d="M41.7577 0.0902809L39.9766 1L49.7969 20.6866L51.578 19.7769L41.7577 0.0902809Z" fill="white"/>
<path d="M21.9766 30H19.9766V51H21.9766V30Z" fill="white"/>
<path d="M29.9766 30H27.9766V51H29.9766V30Z" fill="white"/>
<path d="M37.9766 30H35.9766V51H37.9766V30Z" fill="white"/>
<path d="M45.9766 30H43.9766V51H45.9766V30Z" fill="white"/>
<path d="M53.9766 30H51.9766V51H53.9766V30Z" fill="white"/>
<path fill-rule="evenodd" clip-rule="evenodd" d="M61.5971 59H11.9573L5.97656 25.6071L8.36885 25L13.9508 56.5714H59.4042L65.5843 25L67.9766 25.6071L61.5971 59Z" fill="white"/>
</svg>
