<svg width="60" height="66" viewBox="0 0 60 66" fill="none" xmlns="http://www.w3.org/2000/svg">
<path fill-rule="evenodd" clip-rule="evenodd" d="M3.26949 43.366H57.2525C56.6504 28.9804 44.8103 17.4314 30.3613 17.4314C15.9123 17.4314 3.87153 28.9804 3.26949 43.366ZM59.8613 46H0.861328V44.7843C0.861328 28.3725 14.1062 15 30.3613 15C46.6164 15 59.8613 28.3725 59.8613 44.7843V46Z" fill="white"/>
<path fill-rule="evenodd" clip-rule="evenodd" d="M3.25322 63.5385H57.4694V52.6667H3.25322V63.5385ZM59.8613 66H0.861328V50H59.8613V66Z" fill="white"/>
<path fill-rule="evenodd" clip-rule="evenodd" d="M22.2844 7.5H38.2363V2.30769H22.2844V7.5ZM40.6594 10H19.8613V0H40.8613V10H40.6594Z" fill="white"/>
<path fill-rule="evenodd" clip-rule="evenodd" d="M27.5439 50.551H35.3851V45.6531H27.5439V50.551ZM37.8613 53H24.8613V43H37.8613V53Z" fill="white"/>
<path d="M30.8613 9H28.8613V15H30.8613V9Z" fill="white"/>
</svg>
