<svg width="551" height="319" viewBox="0 0 551 319" fill="none" xmlns="http://www.w3.org/2000/svg">
<path d="M12.6335 220.608V184.969L90.098 62.9091H121.767V111.29H103.393L58.0597 183.122V184.599H170.24V220.608H12.6335ZM103.947 252V209.713L104.871 194.109V62.9091H147.619V252H103.947ZM272.403 256.616C255.906 256.616 241.688 252.708 229.746 244.891C217.805 237.012 208.603 225.717 202.14 211.006C195.677 196.233 192.476 178.475 192.538 157.732C192.599 136.988 195.831 119.384 202.232 104.919C208.695 90.3925 217.867 79.3437 229.746 71.7727C241.688 64.1401 255.906 60.3239 272.403 60.3239C288.899 60.3239 303.118 64.1401 315.059 71.7727C327.062 79.3437 336.295 90.3925 342.758 104.919C349.221 119.446 352.422 137.05 352.36 157.732C352.36 178.536 349.129 196.325 342.665 211.098C336.202 225.871 327 237.166 315.059 244.983C303.179 252.739 288.96 256.616 272.403 256.616ZM272.403 219.223C282.251 219.223 290.222 214.206 296.316 204.173C302.41 194.079 305.426 178.598 305.364 157.732C305.364 144.067 303.979 132.803 301.21 123.939C298.44 115.014 294.593 108.366 289.668 103.996C284.744 99.6255 278.989 97.4403 272.403 97.4403C262.616 97.4403 254.706 102.395 248.674 112.305C242.642 122.154 239.595 137.296 239.533 157.732C239.472 171.581 240.795 183.061 243.504 192.17C246.273 201.28 250.151 208.082 255.137 212.575C260.123 217.007 265.878 219.223 272.403 219.223Z" fill="#1F1F1F"/>
<path d="M264 256H280V189H264V256Z" fill="#EBEBEB"/>
<path d="M272 203H277V194H272V203Z" fill="white"/>
<path d="M274.063 202C274.1 202 274.127 199.965 274.127 197.503C274.127 195.04 274.127 193 274.063 193C274 193 274 195.035 274 197.503C274 199.97 274.016 202 274.063 202Z" fill="#E0E0E0"/>
<path d="M272 196.077C272 196.109 273.089 196.14 274.5 196.14C275.911 196.14 277 196.109 277 196.077C276.169 196.009 275.334 195.986 274.5 196.008C273.666 195.986 272.831 196.009 272 196.077Z" fill="#E0E0E0"/>
<path d="M272 200.072C272.832 200.137 273.668 200.158 274.503 200.135C275.336 200.158 276.169 200.136 277 200.072C276.169 200.007 275.336 199.986 274.503 200.009C273.668 199.986 272.832 200.007 272 200.072Z" fill="#E0E0E0"/>
<path d="M272 215H277V206H272V215Z" fill="white"/>
<path d="M274.063 214C274.1 214 274.127 211.965 274.127 209.503C274.127 207.04 274.127 205 274.063 205C274 205 274 207.035 274 209.503C274 211.97 274.016 214 274.063 214Z" fill="#E0E0E0"/>
<path d="M272 209.077C272.832 209.141 273.666 209.163 274.5 209.14C275.334 209.162 276.168 209.141 277 209.077C276.169 209.009 275.334 208.986 274.5 209.008C273.666 208.986 272.831 209.009 272 209.077Z" fill="#E0E0E0"/>
<path d="M272 212.072C272.832 212.14 273.668 212.163 274.503 212.141C275.336 212.163 276.17 212.14 277 212.072C276.169 212.007 275.336 211.986 274.503 212.009C273.668 211.986 272.832 212.007 272 212.072Z" fill="#E0E0E0"/>
<path d="M272 227H277V218H272V227Z" fill="white"/>
<path d="M274.049 227C274.086 227 274.113 224.965 274.113 222.503C274.113 220.04 274.113 218 274.049 218C273.986 218 274.002 220.015 274.002 222.508C274.002 225.001 274.002 227 274.049 227Z" fill="#E0E0E0"/>
<path d="M272 221.072C272.832 221.137 273.666 221.158 274.5 221.135C275.334 221.158 276.168 221.136 277 221.072C276.168 221.008 275.334 220.986 274.5 221.009C273.666 220.986 272.832 221.007 272 221.072Z" fill="#E0E0E0"/>
<path d="M272 224.063C272.832 224.131 273.668 224.154 274.503 224.132C275.336 224.154 276.17 224.131 277 224.063C277 224.032 275.881 224 274.503 224C273.124 224 272 224.032 272 224.063Z" fill="#E0E0E0"/>
<path d="M272 239H277V230H272V239Z" fill="white"/>
<path d="M274.049 239C274.086 239 274.113 236.964 274.113 234.5C274.113 232.036 274.113 230 274.049 230C273.986 230 274.002 232.011 274.002 234.5C274.002 236.989 274.002 239 274.049 239Z" fill="#E0E0E0"/>
<path d="M272 233.072C272.832 233.137 273.666 233.158 274.5 233.135C275.334 233.158 276.168 233.136 277 233.072C276.168 233.008 275.334 232.986 274.5 233.009C273.666 232.986 272.832 233.007 272 233.072Z" fill="#E0E0E0"/>
<path d="M272 236.063C272.832 236.131 273.668 236.154 274.503 236.132C275.336 236.154 276.17 236.131 277 236.063C277 236.032 275.881 236 274.503 236C273.124 236 272 236.032 272 236.063Z" fill="#E0E0E0"/>
<path d="M257 256H269V189H257V256Z" fill="#E0E0E0"/>
<path d="M260 203H265V194H260V203Z" fill="white"/>
<path d="M262.063 202C262.1 202 262.127 199.965 262.127 197.503C262.127 195.04 262.127 193 262.063 193C262 193 262 195.035 262 197.503C262 199.97 262.026 202 262.063 202Z" fill="#E0E0E0"/>
<path d="M260 196.077C260 196.109 261.089 196.14 262.5 196.14C263.911 196.14 265 196.109 265 196.077C264.169 196.009 263.334 195.986 262.5 196.008C261.666 195.986 260.831 196.009 260 196.077Z" fill="#E0E0E0"/>
<path d="M260 200.072C260.832 200.137 261.668 200.158 262.503 200.135C263.336 200.158 264.169 200.136 265 200.072C264.169 200.007 263.336 199.986 262.503 200.009C261.668 199.986 260.832 200.007 260 200.072Z" fill="#E0E0E0"/>
<path d="M260 215H265V206H260V215Z" fill="white"/>
<path d="M262.063 215C262.1 215 262.127 212.965 262.127 210.503C262.127 208.04 262.127 206 262.063 206C262 206 262 208.035 262 210.503C262 212.97 262.026 215 262.063 215Z" fill="#E0E0E0"/>
<path d="M260 209.077C260 209.109 261.089 209.14 262.5 209.14C263.911 209.14 265 209.109 265 209.077C264.169 209.009 263.334 208.986 262.5 209.008C261.666 208.986 260.831 209.009 260 209.077Z" fill="#E0E0E0"/>
<path d="M260 212.072C260.832 212.137 261.668 212.158 262.503 212.135C263.336 212.158 264.169 212.136 265 212.072C264.169 212.008 263.336 211.986 262.503 212.009C261.668 211.986 260.832 212.007 260 212.072Z" fill="#E0E0E0"/>
<path d="M260 227H265V218H260V227Z" fill="white"/>
<path d="M262.063 227C262.1 227 262.127 224.965 262.127 222.503C262.127 220.04 262.127 218 262.063 218C262 218 262 220.035 262 222.503C262 224.97 262.026 227 262.063 227Z" fill="#E0E0E0"/>
<path d="M260 221.072C260.832 221.137 261.666 221.158 262.5 221.135C263.334 221.158 264.168 221.136 265 221.072C264.168 221.008 263.334 220.986 262.5 221.009C261.666 220.986 260.832 221.007 260 221.072Z" fill="#E0E0E0"/>
<path d="M260 224.072C260.832 224.14 261.668 224.163 262.503 224.141C263.336 224.163 264.17 224.14 265 224.072C264.169 224.007 263.336 223.986 262.503 224.009C261.668 223.986 260.832 224.007 260 224.072Z" fill="#E0E0E0"/>
<path d="M260 240H265V231H260V240Z" fill="white"/>
<path d="M262.063 239C262.1 239 262.127 236.965 262.127 234.503C262.127 232.04 262.127 230 262.063 230C262 230 262 232.035 262 234.503C262 236.97 262.026 239 262.063 239Z" fill="#E0E0E0"/>
<path d="M260 233.072C260.832 233.137 261.666 233.158 262.5 233.135C263.334 233.158 264.168 233.136 265 233.072C264.168 233.008 263.334 232.986 262.5 233.009C261.666 232.986 260.832 233.007 260 233.072Z" fill="#E0E0E0"/>
<path d="M260 237.063C260.832 237.131 261.668 237.154 262.503 237.132C263.336 237.154 264.17 237.131 265 237.063C265 237.032 263.881 237 262.503 237C261.124 237 260 237.032 260 237.063Z" fill="#E0E0E0"/>
<path d="M272 251H277V242H272V251Z" fill="white"/>
<path d="M274.063 251C274.1 251 274.127 248.964 274.127 246.5C274.127 244.036 274.127 242 274.063 242C274 242 274 244.036 274 246.5C274 248.964 274.016 251 274.063 251Z" fill="#E0E0E0"/>
<path d="M272 245.072C272.832 245.137 273.666 245.158 274.5 245.135C275.334 245.158 276.168 245.136 277 245.072C276.168 245.008 275.334 244.986 274.5 245.009C273.666 244.986 272.832 245.007 272 245.072Z" fill="#E0E0E0"/>
<path d="M272 249.077C272 249.109 273.119 249.14 274.503 249.14C275.886 249.14 277 249.109 277 249.077C276.17 249.009 275.336 248.986 274.503 249.008C273.668 248.986 272.832 249.009 272 249.077Z" fill="#E0E0E0"/>
<path d="M260 252H265V243H260V252Z" fill="white"/>
<path d="M262.063 251C262.1 251 262.127 248.965 262.127 246.503C262.127 244.04 262.127 242 262.063 242C262 242 262 244.035 262 246.503C262 248.97 262.026 251 262.063 251Z" fill="#E0E0E0"/>
<path d="M260 246.072C260.832 246.137 261.666 246.158 262.5 246.135C263.334 246.158 264.168 246.136 265 246.072C264.168 246.008 263.334 245.986 262.5 246.009C261.666 245.986 260.832 246.007 260 246.072Z" fill="#E0E0E0"/>
<path d="M260 249.063C260.832 249.131 261.668 249.154 262.503 249.132C263.336 249.154 264.17 249.131 265 249.063C265 249.032 263.881 249 262.503 249C261.124 249 260 249.032 260 249.063Z" fill="#E0E0E0"/>
<path d="M434 209H453V130H434V209Z" fill="#EBEBEB"/>
<path d="M443 146H449V135H443V146Z" fill="white"/>
<path d="M446.079 146C446.121 146 446.153 143.537 446.153 140.503C446.153 137.469 446.121 135 446.079 135C446.037 135 446 137.463 446 140.503C446 143.542 446.037 146 446.079 146Z" fill="#E0E0E0"/>
<path d="M444 138.074C445.998 138.18 448.002 138.18 450 138.074C448.001 137.975 445.999 137.975 444 138.074Z" fill="#E0E0E0"/>
<path d="M444 142.074C445.998 142.18 448.002 142.18 450 142.074C448.001 141.975 445.999 141.975 444 142.074Z" fill="#E0E0E0"/>
<path d="M443 160H449V149H443V160Z" fill="white"/>
<path d="M446.079 160C446.121 160 446.153 157.537 446.153 154.503C446.153 151.469 446.121 149 446.079 149C446.037 149 446 151.463 446 154.503C446 157.542 446.037 160 446.079 160Z" fill="#E0E0E0"/>
<path d="M444 153.074C445.998 153.18 448.002 153.18 450 153.074C448.001 152.975 445.999 152.975 444 153.074Z" fill="#E0E0E0"/>
<path d="M444 157.074C445.998 157.18 448.002 157.18 450 157.074C448.001 156.975 445.999 156.975 444 157.074Z" fill="#E0E0E0"/>
<path d="M443 174H449V163H443V174Z" fill="white"/>
<path d="M446.079 174C446.121 174 446.153 171.537 446.153 168.503C446.153 165.469 446.121 163 446.079 163C446.037 163 446 165.463 446 168.503C446 171.542 446.037 174 446.079 174Z" fill="#E0E0E0"/>
<path d="M444 167.074C445.999 167.173 448.001 167.173 450 167.074C448.001 166.975 445.999 166.975 444 167.074Z" fill="#E0E0E0"/>
<path d="M444 171.074C445.998 171.18 448.002 171.18 450 171.074C448.001 170.975 445.999 170.975 444 171.074Z" fill="#E0E0E0"/>
<path d="M443 189H449V178H443V189Z" fill="white"/>
<path d="M446.079 189C446.121 189 446.153 186.537 446.153 183.497C446.153 180.458 446.121 178 446.079 178C446.037 178 446 180.463 446 183.497C446 186.531 446.037 189 446.079 189Z" fill="#E0E0E0"/>
<path d="M444 182.074C445.999 182.173 448.001 182.173 450 182.074C448.001 181.975 445.999 181.975 444 182.074Z" fill="#E0E0E0"/>
<path d="M444 185.074C445.998 185.18 448.002 185.18 450 185.074C448.001 184.975 445.999 184.975 444 185.074Z" fill="#E0E0E0"/>
<path d="M426 209H440V130H426V209Z" fill="#E0E0E0"/>
<path d="M430 146H436V135H430V146Z" fill="white"/>
<path d="M432.074 146C432.116 146 432.148 143.537 432.148 140.503C432.148 137.469 432.116 135 432.074 135C432.032 135 432 137.463 432 140.503C432 143.542 432.032 146 432.074 146Z" fill="#E0E0E0"/>
<path d="M430.001 138.074C431.999 138.18 434.003 138.18 436.001 138.074C434.002 137.975 432 137.975 430.001 138.074Z" fill="#E0E0E0"/>
<path d="M430.001 142.074C431.999 142.18 434.002 142.18 436.001 142.074C434.002 141.975 432 141.975 430.001 142.074Z" fill="#E0E0E0"/>
<path d="M430 160H436V149H430V160Z" fill="white"/>
<path d="M432.074 160C432.116 160 432.148 157.536 432.148 154.5C432.148 151.464 432.116 149 432.074 149C432.032 149 432 151.459 432 154.5C432 157.541 432.032 160 432.074 160Z" fill="#E0E0E0"/>
<path d="M430.001 153.074C431.999 153.18 434.003 153.18 436.001 153.074C434.002 152.975 432 152.975 430.001 153.074Z" fill="#E0E0E0"/>
<path d="M430.001 157.079C432 157.178 434.002 157.178 436.001 157.079C434.002 156.974 431.999 156.974 430.001 157.079Z" fill="#E0E0E0"/>
<path d="M430 175H436V164H430V175Z" fill="white"/>
<path d="M432.074 175C432.116 175 432.148 172.541 432.148 169.5C432.148 166.459 432.116 164 432.074 164C432.032 164 432 166.459 432 169.5C432 172.541 432.032 175 432.074 175Z" fill="#E0E0E0"/>
<path d="M430.001 167.079C432 167.178 434.002 167.178 436.001 167.079C434.003 166.974 431.999 166.974 430.001 167.079Z" fill="#E0E0E0"/>
<path d="M430.001 171.079C432 171.178 434.002 171.178 436.001 171.079C434.002 170.974 431.999 170.974 430.001 171.079Z" fill="#E0E0E0"/>
<path d="M430 189H436V178H430V189Z" fill="white"/>
<path d="M432.074 189C432.116 189 432.148 186.537 432.148 183.497C432.148 180.458 432.116 178 432.074 178C432.032 178 432 180.463 432 183.497C432 186.531 432.032 189 432.074 189Z" fill="#E0E0E0"/>
<path d="M430.001 182.079C432 182.178 434.002 182.178 436.001 182.079C434.003 181.974 431.999 181.974 430.001 182.079Z" fill="#E0E0E0"/>
<path d="M430.001 186.074C432 186.173 434.002 186.173 436.001 186.074C434.002 185.975 432 185.975 430.001 186.074Z" fill="#E0E0E0"/>
<path d="M443 203H449V192H443V203Z" fill="white"/>
<path d="M446.079 203C446.121 203 446.153 200.537 446.153 197.497C446.153 194.458 446.121 192 446.079 192C446.037 192 446 194.463 446 197.497C446 200.531 446.037 203 446.079 203Z" fill="#E0E0E0"/>
<path d="M444 196.079C445.999 196.178 448.001 196.178 450 196.079C448.002 195.974 445.998 195.974 444 196.079Z" fill="#E0E0E0"/>
<path d="M444 200.074C445.999 200.172 448.001 200.172 450 200.074C448.001 199.975 445.999 199.975 444 200.074Z" fill="#E0E0E0"/>
<path d="M430 204H436V193H430V204Z" fill="white"/>
<path d="M432.074 204C432.116 204 432.148 201.537 432.148 198.503C432.148 195.469 432.116 193 432.074 193C432.032 193 432 195.463 432 198.503C432 201.542 432.032 204 432.074 204Z" fill="#E0E0E0"/>
<path d="M430.001 196.074C431.999 196.18 434.003 196.18 436.001 196.074C434.002 195.975 432 195.975 430.001 196.074Z" fill="#E0E0E0"/>
<path d="M430.001 200.074C431.999 200.18 434.002 200.18 436.001 200.074C434.002 199.975 432 199.975 430.001 200.074Z" fill="#E0E0E0"/>
<path d="M434 256H453V177H434V256Z" fill="#EBEBEB"/>
<path d="M444 193H450V182H444V193Z" fill="white"/>
<path d="M447.074 193C447.116 193 447.153 190.537 447.153 187.497C447.153 184.458 447.116 182 447.074 182C447.032 182 447 184.463 447 187.497C447 190.531 447.032 193 447.074 193Z" fill="#E0E0E0"/>
<path d="M444 186.079C445.999 186.178 448.001 186.178 450 186.079C448.002 185.974 445.998 185.974 444 186.079Z" fill="#E0E0E0"/>
<path d="M444 190.074C445.998 190.18 448.002 190.18 450 190.074C448.001 189.975 445.999 189.975 444 190.074Z" fill="#E0E0E0"/>
<path d="M444 208H450V197H444V208Z" fill="white"/>
<path d="M447.074 208C447.116 208 447.153 205.537 447.153 202.497C447.153 199.458 447.116 197 447.074 197C447.032 197 447 199.463 447 202.497C447 205.531 447.032 208 447.074 208Z" fill="#E0E0E0"/>
<path d="M444 200.079C445.999 200.178 448.001 200.178 450 200.079C448.002 199.974 445.998 199.974 444 200.079Z" fill="#E0E0E0"/>
<path d="M444 204.074C445.999 204.172 448.001 204.172 450 204.074C448.001 203.975 445.999 203.975 444 204.074Z" fill="#E0E0E0"/>
<path d="M444 222H450V211H444V222Z" fill="white"/>
<path d="M447.074 222C447.116 222 447.153 219.537 447.153 216.497C447.153 213.458 447.116 211 447.074 211C447.032 211 447 213.463 447 216.497C447 219.531 447.032 222 447.074 222Z" fill="#E0E0E0"/>
<path d="M444 215.079C445.999 215.178 448.001 215.178 450 215.079C448.002 214.974 445.998 214.974 444 215.079Z" fill="#E0E0E0"/>
<path d="M444 219.079C445.999 219.178 448.001 219.178 450 219.079C448.005 218.974 446.006 218.974 444.011 219.079H444Z" fill="#E0E0E0"/>
<path d="M444 236H450V225H444V236Z" fill="white"/>
<path d="M447.074 236C447.116 236 447.153 233.537 447.153 230.497C447.153 227.458 447.116 225 447.074 225C447.032 225 447 227.463 447 230.497C447 233.531 447.032 236 447.074 236Z" fill="#E0E0E0"/>
<path d="M444 229.079C445.999 229.178 448.001 229.178 450 229.079C448.002 228.974 445.998 228.974 444 229.079Z" fill="#E0E0E0"/>
<path d="M444 233.079C445.999 233.178 448.001 233.178 450 233.079C448.002 232.974 445.998 232.974 444 233.079Z" fill="#E0E0E0"/>
<path d="M426 256H440V177H426V256Z" fill="#E0E0E0"/>
<path d="M430 193H436V182H430V193Z" fill="white"/>
<path d="M433.079 193C433.121 193 433.153 190.537 433.153 187.497C433.153 184.458 433.121 182 433.079 182C433.037 182 433 184.463 433 187.497C433 190.531 433.037 193 433.079 193Z" fill="#E0E0E0"/>
<path d="M430.001 186.079C432 186.178 434.002 186.178 436.001 186.079C434.003 185.974 431.999 185.974 430.001 186.079Z" fill="#E0E0E0"/>
<path d="M430.001 190.074C431.999 190.18 434.002 190.18 436.001 190.074C434.002 189.975 432 189.975 430.001 190.074Z" fill="#E0E0E0"/>
<path d="M430 208H436V197H430V208Z" fill="white"/>
<path d="M433.079 208C433.121 208 433.153 205.537 433.153 202.503C433.153 199.469 433.121 197 433.079 197C433.037 197 433 199.463 433 202.503C433 205.542 433.037 208 433.079 208Z" fill="#E0E0E0"/>
<path d="M430.001 200.074C431.999 200.18 434.003 200.18 436.001 200.074C434.002 199.975 432 199.975 430.001 200.074Z" fill="#E0E0E0"/>
<path d="M430.001 204.074C431.999 204.18 434.002 204.18 436.001 204.074C434.002 203.975 432 203.975 430.001 204.074Z" fill="#E0E0E0"/>
<path d="M430 222H436V211H430V222Z" fill="white"/>
<path d="M433.079 222C433.121 222 433.153 219.537 433.153 216.503C433.153 213.469 433.121 211 433.079 211C433.037 211 433 213.463 433 216.503C433 219.542 433.037 222 433.079 222Z" fill="#E0E0E0"/>
<path d="M430.001 215.074C431.999 215.18 434.003 215.18 436.001 215.074C434.002 214.975 432 214.975 430.001 215.074Z" fill="#E0E0E0"/>
<path d="M430.001 219.079C430.001 219.116 431.341 219.153 433.001 219.153C434.661 219.153 436.001 219.116 436.001 219.079C434.002 218.974 431.999 218.974 430.001 219.079Z" fill="#E0E0E0"/>
<path d="M430 237H436V226H430V237Z" fill="white"/>
<path d="M433.079 237C433.121 237 433.153 234.541 433.153 231.5C433.153 228.459 433.121 226 433.079 226C433.037 226 433 228.459 433 231.5C433 234.541 433.037 237 433.079 237Z" fill="#E0E0E0"/>
<path d="M430.001 229.079C432 229.178 434.002 229.178 436.001 229.079C434.003 228.974 431.999 228.974 430.001 229.079Z" fill="#E0E0E0"/>
<path d="M430.001 233.079C432 233.178 434.002 233.178 436.001 233.079C434.002 232.974 431.999 232.974 430.001 233.079Z" fill="#E0E0E0"/>
<path d="M444 251H450V240H444V251Z" fill="white"/>
<path d="M447.074 251C447.116 251 447.153 248.541 447.153 245.5C447.153 242.459 447.116 240 447.074 240C447.032 240 447 242.459 447 245.5C447 248.541 447.032 251 447.074 251Z" fill="#E0E0E0"/>
<path d="M444 243.079C445.999 243.178 448.001 243.178 450 243.079C448.002 242.974 445.998 242.974 444 243.079Z" fill="#E0E0E0"/>
<path d="M444 247.079C445.999 247.178 448.001 247.178 450 247.079C448.002 246.974 445.998 246.974 444 247.079Z" fill="#E0E0E0"/>
<path d="M430 251H436V240H430V251Z" fill="white"/>
<path d="M433.079 251C433.121 251 433.153 248.537 433.153 245.497C433.153 242.458 433.121 240 433.079 240C433.037 240 433 242.463 433 245.497C433 248.531 433.037 251 433.079 251Z" fill="#E0E0E0"/>
<path d="M430.001 244.079C432 244.178 434.002 244.178 436.001 244.079C434.003 243.974 431.999 243.974 430.001 244.079Z" fill="#E0E0E0"/>
<path d="M430.001 248.074C432 248.173 434.002 248.173 436.001 248.074C434.002 247.975 432 247.975 430.001 248.074Z" fill="#E0E0E0"/>
<path d="M287 256H315V130H287V256Z" fill="#EBEBEB"/>
<path d="M301 155H310V139H301V155Z" fill="white"/>
<path d="M305.111 155C305.174 155 305.227 151.396 305.227 147C305.227 142.604 305.174 139 305.111 139C305.048 139 305 142.604 305 147C305 151.396 305.048 155 305.111 155Z" fill="#E0E0E0"/>
<path d="M301 144.13C302.498 144.243 304.001 144.28 305.503 144.241C307.003 144.279 308.504 144.242 310 144.13C308.504 144.015 307.003 143.976 305.503 144.014C304.001 143.976 302.498 144.015 301 144.13Z" fill="#E0E0E0"/>
<path d="M301 150.125C302.497 150.241 303.999 150.28 305.5 150.242C307.001 150.28 308.503 150.241 310 150.125C308.503 150.013 307.001 149.976 305.5 150.015C303.999 149.976 302.497 150.013 301 150.125Z" fill="#E0E0E0"/>
<path d="M301 177H310V161H301V177Z" fill="white"/>
<path d="M305.111 176C305.174 176 305.227 172.396 305.227 168C305.227 163.604 305.174 160 305.111 160C305.048 160 305 163.604 305 168C305 172.396 305.048 176 305.111 176Z" fill="#E0E0E0"/>
<path d="M301 166.125C302.498 166.241 304.001 166.28 305.503 166.242C307.003 166.28 308.504 166.241 310 166.125C308.504 166.013 307.003 165.976 305.503 166.015C304.001 165.976 302.498 166.013 301 166.125Z" fill="#E0E0E0"/>
<path d="M301 172.13C302.497 172.239 303.999 172.276 305.5 172.241C307.001 172.276 308.503 172.239 310 172.13C308.503 172.015 307.001 171.976 305.5 172.014C303.999 171.976 302.497 172.015 301 172.13Z" fill="#E0E0E0"/>
<path d="M301 198H310V182H301V198Z" fill="white"/>
<path d="M305.111 198C305.174 198 305.227 194.396 305.227 190C305.227 185.604 305.174 182 305.111 182C305.048 182 305 185.578 305 190C305 194.422 305.048 198 305.111 198Z" fill="#E0E0E0"/>
<path d="M301 187.13C302.498 187.239 304.001 187.276 305.503 187.241C307.003 187.276 308.504 187.239 310 187.13C308.504 187.015 307.003 186.976 305.503 187.014C304.001 186.976 302.498 187.015 301 187.13Z" fill="#E0E0E0"/>
<path d="M301 193.13C302.497 193.246 303.999 193.285 305.5 193.247C307.001 193.285 308.503 193.246 310 193.13C308.503 193.015 307.001 192.976 305.5 193.014C303.999 192.976 302.497 193.015 301 193.13Z" fill="#E0E0E0"/>
<path d="M301 219H310V203H301V219Z" fill="white"/>
<path d="M305.111 219C305.174 219 305.227 215.396 305.227 211C305.227 206.604 305.174 203 305.111 203C305.048 203 305 206.604 305 211C305 215.396 305.048 219 305.111 219Z" fill="#E0E0E0"/>
<path d="M301 209.13C302.498 209.246 304.001 209.285 305.503 209.247C307.003 209.285 308.504 209.246 310 209.13C308.504 209.015 307.003 208.976 305.503 209.014C304.001 208.976 302.498 209.015 301 209.13Z" fill="#E0E0E0"/>
<path d="M301 214.124C302.497 214.239 303.999 214.278 305.5 214.24C307.001 214.278 308.503 214.239 310 214.124C308.503 214.015 307.001 213.978 305.5 214.013C303.999 213.978 302.497 214.015 301 214.124Z" fill="#E0E0E0"/>
<path d="M275 256H295V130H275V256Z" fill="#E0E0E0"/>
<path d="M280 155H289V139H280V155Z" fill="white"/>
<path d="M285.111 155C285.174 155 285.227 151.396 285.227 147C285.227 142.604 285.174 139 285.111 139C285.048 139 285 142.604 285 147C285 151.396 285.048 155 285.111 155Z" fill="#E0E0E0"/>
<path d="M281 144.13C282.496 144.242 283.997 144.279 285.497 144.241C286.999 144.28 288.502 144.243 290 144.13C288.502 144.015 286.999 143.976 285.497 144.014C283.997 143.976 282.496 144.015 281 144.13Z" fill="#E0E0E0"/>
<path d="M281 150.125C282.497 150.241 283.999 150.28 285.5 150.242C287.001 150.28 288.503 150.241 290 150.125C288.503 150.013 287.001 149.976 285.5 150.015C283.999 149.976 282.497 150.013 281 150.125Z" fill="#E0E0E0"/>
<path d="M280 177H289V161H280V177Z" fill="white"/>
<path d="M285.111 176C285.174 176 285.227 172.396 285.227 168C285.227 163.604 285.174 160 285.111 160C285.048 160 285 163.578 285 168C285 172.422 285.048 176 285.111 176Z" fill="#E0E0E0"/>
<path d="M281 166.124C282.496 166.239 283.997 166.278 285.497 166.24C286.999 166.278 288.502 166.239 290 166.124C288.502 166.015 286.999 165.978 285.497 166.013C283.997 165.978 282.496 166.015 281 166.124Z" fill="#E0E0E0"/>
<path d="M281 172.13C282.497 172.242 283.999 172.279 285.5 172.241C287.001 172.279 288.503 172.242 290 172.13C288.503 172.015 287.001 171.976 285.5 172.014C283.999 171.976 282.497 172.015 281 172.13Z" fill="#E0E0E0"/>
<path d="M280 198H289V182H280V198Z" fill="white"/>
<path d="M285.111 198C285.174 198 285.227 194.422 285.227 190C285.227 185.578 285.174 182 285.111 182C285.048 182 285 185.604 285 190C285 194.396 285.048 198 285.111 198Z" fill="#E0E0E0"/>
<path d="M281 187.125C282.496 187.241 283.997 187.28 285.497 187.242C286.999 187.28 288.502 187.241 290 187.125C288.502 187.013 286.999 186.976 285.497 187.015C283.997 186.976 282.496 187.013 281 187.125Z" fill="#E0E0E0"/>
<path d="M281 193.13C282.497 193.242 283.999 193.279 285.5 193.241C287.001 193.279 288.503 193.242 290 193.13C288.503 193.015 287.001 192.976 285.5 193.014C283.999 192.976 282.497 193.015 281 193.13Z" fill="#E0E0E0"/>
<path d="M280 220H289V204H280V220Z" fill="white"/>
<path d="M285.111 220C285.174 220 285.227 216.396 285.227 212C285.227 207.604 285.174 204 285.111 204C285.048 204 285 207.604 285 212C285 216.396 285.048 220 285.111 220Z" fill="#E0E0E0"/>
<path d="M281 209.13C282.496 209.242 283.997 209.279 285.497 209.241C286.999 209.28 288.502 209.243 290 209.13C288.502 209.015 286.999 208.976 285.497 209.014C283.997 208.976 282.496 209.015 281 209.13Z" fill="#E0E0E0"/>
<path d="M281 215.125C282.497 215.241 283.999 215.28 285.5 215.242C287.001 215.28 288.503 215.241 290 215.125C288.503 215.013 287.001 214.976 285.5 215.015C283.999 214.976 282.497 215.013 281 215.125Z" fill="#E0E0E0"/>
<path d="M301 241H310V225H301V241Z" fill="white"/>
<path d="M305.111 240C305.174 240 305.227 236.396 305.227 232C305.227 227.604 305.174 224 305.111 224C305.048 224 305 227.578 305 232C305 236.422 305.048 240 305.111 240Z" fill="#E0E0E0"/>
<path d="M301 230.124C302.498 230.239 304.001 230.278 305.503 230.24C307.003 230.278 308.504 230.239 310 230.124C308.504 230.015 307.003 229.978 305.503 230.013C304.001 229.978 302.498 230.015 301 230.124Z" fill="#E0E0E0"/>
<path d="M301 236.13C302.497 236.242 303.999 236.279 305.5 236.241C307.001 236.279 308.503 236.242 310 236.13C308.503 236.015 307.001 235.976 305.5 236.014C303.999 235.976 302.497 236.015 301 236.13Z" fill="#E0E0E0"/>
<path d="M280 242H289V226H280V242Z" fill="white"/>
<path d="M285.111 241C285.174 241 285.227 237.396 285.227 233C285.227 228.604 285.174 225 285.111 225C285.048 225 285 228.604 285 233C285 237.396 285.048 241 285.111 241Z" fill="#E0E0E0"/>
<path d="M281 231.13C282.496 231.242 283.997 231.279 285.497 231.241C286.999 231.28 288.502 231.243 290 231.13C288.502 231.015 286.999 230.976 285.497 231.014C283.997 230.976 282.496 231.015 281 231.13Z" fill="#E0E0E0"/>
<path d="M281 237.125C282.497 237.241 283.999 237.28 285.5 237.242C287.001 237.28 288.503 237.241 290 237.125C288.503 237.013 287.001 236.976 285.5 237.015C283.999 236.976 282.497 237.013 281 237.125Z" fill="#E0E0E0"/>
<path d="M460.984 63.6795C461.234 61.8962 458.649 60.4282 456.706 60.2783C455.782 60.2059 454.821 60.3403 453.94 60.0457C452.04 59.3996 451.286 57.0063 449.423 56.2465C448.037 55.6779 446.439 56.1844 445.096 56.8409C443.753 57.4974 442.442 58.3296 440.919 58.4226C439.613 58.5053 438.196 58.0349 437.049 58.6552C436.2 59.1204 435.754 60.0767 434.968 60.6401C434.15 61.1281 433.205 61.3775 432.245 61.3586C431.289 61.3349 430.336 61.4857 429.437 61.8032C428.567 62.1908 427.845 63.0851 428.03 64L460.984 63.6795Z" fill="#EBEBEB"/>
<path d="M533.983 39.6847C534.237 37.9013 531.652 36.4333 529.709 36.2782C528.781 36.2059 527.82 36.3454 526.939 36.0456C525.038 35.4047 524.285 33.0114 522.427 32.2463C521.036 31.6777 519.438 32.1843 518.095 32.8459C516.752 33.5076 515.441 34.3346 513.918 34.4277C512.612 34.5104 511.195 34.0348 510.053 34.6603C509.199 35.1204 508.753 36.0766 507.967 36.6401C507.151 37.1333 506.204 37.383 505.244 37.3586C504.287 37.3366 503.335 37.4891 502.436 37.8083C501.565 38.196 500.844 39.0902 501.029 40L533.983 39.6847Z" fill="#EBEBEB"/>
<path d="M277.983 114.694C278.237 112.908 275.654 111.437 273.739 111.287C272.81 111.214 271.85 111.354 270.975 111.054C269.07 110.406 268.323 108.008 266.461 107.247C265.071 106.677 263.479 107.185 262.132 107.843C260.784 108.5 259.479 109.334 257.962 109.427C256.652 109.51 255.236 109.039 254.095 109.66C253.241 110.127 252.795 111.085 252.01 111.649C251.177 112.142 250.215 112.387 249.241 112.353C248.286 112.331 247.334 112.482 246.435 112.799C245.57 113.187 244.844 114.083 245.029 115L277.983 114.694Z" fill="#EBEBEB"/>
<path d="M384.979 43.6111C385.287 41.379 382.151 39.5465 379.795 39.3494C378.676 39.2588 377.509 39.4293 376.442 39.0564C374.14 38.252 373.217 35.2634 370.967 34.3098C369.285 33.596 367.349 34.2299 365.72 35.0556C364.091 35.8814 362.478 36.9148 360.658 37.032C359.067 37.1332 357.353 36.5419 355.968 37.3197C354.934 37.9004 354.377 39.0937 353.443 39.8022C352.509 40.5107 351.294 40.6385 350.143 40.6971C348.992 40.7557 347.787 40.7717 346.737 41.2565C345.686 41.7413 344.816 42.8547 345.034 44L384.979 43.6111Z" fill="#E0E0E0"/>
<path d="M171.246 130.611C171.553 128.379 168.418 126.546 166.062 126.349C164.943 126.259 163.775 126.429 162.709 126.056C160.406 125.252 159.483 122.263 157.234 121.31C155.552 120.596 153.615 121.23 151.986 122.056C150.358 122.881 148.745 123.915 146.925 124.032C145.333 124.133 143.62 123.542 142.235 124.32C141.2 124.9 140.643 126.094 139.709 126.802C138.776 127.511 137.561 127.639 136.409 127.697C135.258 127.756 134.054 127.772 133.003 128.256C131.953 128.741 131.083 129.855 131.3 131L171.246 130.611Z" fill="#E0E0E0"/>
<path d="M211.246 43.6111C211.553 41.379 208.418 39.5465 206.062 39.3494C204.943 39.2588 203.775 39.4293 202.709 39.0564C200.406 38.252 199.483 35.2634 197.234 34.3098C195.552 33.596 193.615 34.2299 191.986 35.0556C190.358 35.8814 188.745 36.9148 186.925 37.032C185.333 37.1332 183.62 36.5419 182.235 37.3197C181.2 37.9004 180.643 39.0937 179.709 39.8022C178.776 40.5107 177.561 40.6385 176.409 40.6971C175.258 40.7557 174.054 40.7717 173.003 41.2565C171.953 41.7413 171.083 42.8547 171.3 44L211.246 43.6111Z" fill="#E0E0E0"/>
<path d="M67.3079 70.9292C67.5617 69.0877 64.9749 67.5758 63.0315 67.4132C62.1079 67.3385 61.1449 67.4791 60.2652 67.1715C58.3655 66.5079 57.6039 64.0423 55.748 63.2556C54.3605 62.6667 52.7629 63.1897 51.4191 63.8709C50.0753 64.5521 48.7447 65.4047 47.2434 65.5014C45.9303 65.5849 44.5165 65.0971 43.3741 65.7388C42.5205 66.2178 42.0609 67.2023 41.2906 67.7868C40.5202 68.3713 39.5178 68.4768 38.568 68.5251C37.6182 68.5735 36.6246 68.5867 35.7579 68.9866C34.8913 69.3865 34.1735 70.3051 34.3529 71.25L67.3079 70.9292Z" fill="#E0E0E0"/>
<path d="M392 66H363V83H392V66Z" fill="#E0E0E0"/>
<path d="M378 66H349V83H378V66Z" fill="#EBEBEB"/>
<path d="M436 82H308V89H436V82Z" fill="#E0E0E0"/>
<path d="M394 63H346V67H394V63Z" fill="#E0E0E0"/>
<path d="M405 256L315.153 255.884L315 89H405V256Z" fill="#EBEBEB"/>
<path d="M334 100H324V119H334V100Z" fill="#455A64"/>
<path d="M334 127H324V146H334V127Z" fill="#455A64"/>
<path d="M334 154H324V173H334V154Z" fill="#455A64"/>
<path d="M334 180H324V199H334V180Z" fill="#455A64"/>
<path d="M334 205H324V224H334V205Z" fill="#455A64"/>
<path d="M393 100H383V119H393V100Z" fill="#455A64"/>
<path d="M364 71H355V83H364V71Z" fill="#455A64"/>
<path d="M393 127H383V146H393V127Z" fill="#455A64"/>
<path d="M393 154H383V173H393V154Z" fill="#455A64"/>
<path d="M393 180H383V199H393V180Z" fill="#455A64"/>
<path d="M393 205H383V224H393V205Z" fill="#455A64"/>
<path d="M373 89H343V256H373V89Z" fill="#455A64"/>
<g opacity="0.3">
<path d="M373 141L343 166.633V176L373 149.946V141Z" fill="white"/>
</g>
<g opacity="0.3">
<path d="M373 92L343 117.633V127L373 100.946V92Z" fill="white"/>
</g>
<g opacity="0.3">
<path d="M373 161L343 186.35V205L373 179.333V161Z" fill="white"/>
</g>
<path d="M430 88H405V256H430V88Z" fill="#E0E0E0"/>
<path d="M430.411 255C430.337 255 430.194 221.197 430.094 179.503C429.994 137.808 429.967 104 430.046 104C430.126 104 430.263 137.798 430.369 179.503C430.474 221.207 430.49 255 430.411 255Z" fill="#263238"/>
<path d="M423 100H413V119H423V100Z" fill="#263238"/>
<path d="M423 127H413V146H423V127Z" fill="#263238"/>
<path d="M423 154H413V173H423V154Z" fill="#263238"/>
<path d="M423 180H413V199H423V180Z" fill="#263238"/>
<path d="M423 205H413V224H423V205Z" fill="#263238"/>
<path d="M423 232H413V251H423V232Z" fill="#263238"/>
<path d="M376 224H341V227H376V224Z" fill="#EBEBEB"/>
<path d="M373 120H343V122H373V120Z" fill="#263238"/>
<path d="M373 149H343V151H373V149Z" fill="#263238"/>
<path d="M373 203H343V205H373V203Z" fill="#263238"/>
<path d="M374 177H344V179H374V177Z" fill="#263238"/>
<path d="M368 185.001C368.048 185.06 363.387 189.137 357.595 194.108C351.802 199.08 347.055 203.059 347 202.999C346.946 202.94 351.613 198.863 357.411 193.892C363.209 188.92 367.945 184.941 368 185.001Z" fill="#263238"/>
<path d="M367 203.001C367.051 203.06 362.611 207.137 357.088 212.108C351.564 217.08 347.047 221.059 347 220.999C346.954 220.94 351.389 216.863 356.912 211.897C362.436 206.931 366.953 202.941 367 203.001Z" fill="#263238"/>
<path d="M367 158.001C367.047 158.06 363.732 161.018 359.592 164.607C355.452 168.197 352.053 171.037 352.001 171C351.948 170.962 355.268 167.983 359.413 164.393C363.558 160.803 366.952 157.942 367 158.001Z" fill="#263238"/>
<path d="M359 161C358.094 161.919 357.123 162.783 356.093 163.587C355.122 164.453 354.089 165.259 353 166C353.902 165.076 354.873 164.21 355.907 163.408C356.874 162.54 357.908 161.735 359 161Z" fill="#263238"/>
<path d="M349 138.999C348.957 138.938 353.621 135.531 359.419 131.395C365.218 127.258 369.957 123.944 370 124.001C370.043 124.057 365.385 127.469 359.586 131.611C353.788 135.753 349.049 139.056 349 138.999Z" fill="#263238"/>
<path d="M355 137C355.309 136.708 355.647 136.452 356.008 136.235L358.487 134.484L360.952 132.701C361.277 132.43 361.628 132.195 362 132C361.717 132.318 361.403 132.605 361.063 132.854C360.458 133.355 359.606 134.015 358.639 134.711C357.671 135.407 356.769 135.993 356.119 136.399C355.769 136.644 355.394 136.846 355 137Z" fill="#263238"/>
<path d="M368 95C368 95 367.938 95.0798 367.798 95.2021C367.659 95.3244 367.442 95.5212 367.194 95.734L364.945 97.6594L357.505 103.989L350.097 110.371L347.848 112.302L347.233 112.834C347.088 112.951 347.01 113.009 347 112.999C347.059 112.923 347.125 112.854 347.196 112.791L347.781 112.259C348.329 111.765 349.073 111.089 349.973 110.265C351.839 108.595 354.434 106.313 357.335 103.829C360.235 101.345 362.887 99.138 364.826 97.5583L367.131 95.7021L367.767 95.2128C367.835 95.1315 367.914 95.0599 368 95Z" fill="#263238"/>
<path d="M359 99C358.415 99.5908 357.77 100.125 357.076 100.595C356.432 101.125 355.737 101.595 355 102C355.585 101.41 356.229 100.877 356.924 100.409C357.568 99.8785 358.263 99.4066 359 99Z" fill="#263238"/>
<path d="M331 134C330.425 134.758 329.788 135.46 329.098 136.099C328.453 136.799 327.751 137.435 327 138C327.585 137.243 328.23 136.541 328.926 135.901C329.562 135.201 330.256 134.565 331 134Z" fill="#263238"/>
<path d="M392 161C391.278 161.92 390.479 162.786 389.61 163.591C388.815 164.461 387.942 165.266 387 166C387.715 165.073 388.515 164.205 389.39 163.403C390.186 162.537 391.059 161.733 392 161Z" fill="#263238"/>
<path d="M332 186C331.269 186.925 330.467 187.795 329.601 188.601C328.798 189.465 327.929 190.267 327 191C327.731 190.075 328.533 189.205 329.399 188.399C330.2 187.533 331.07 186.731 332 186Z" fill="#263238"/>
<path d="M389 210C388.428 210.748 387.789 211.447 387.09 212.087C386.454 212.783 385.754 213.423 385 214C385.574 213.253 386.212 212.555 386.91 211.913C387.548 211.218 388.247 210.578 389 210Z" fill="#263238"/>
<path d="M389 213C388.612 213.587 388.146 214.122 387.613 214.593C387.141 215.127 386.599 215.6 386 216C386.388 215.413 386.854 214.878 387.387 214.407C387.861 213.875 388.403 213.402 389 213Z" fill="#263238"/>
<path d="M393 232H383V251H393V232Z" fill="#455A64"/>
<path d="M334 232H324V251H334V232Z" fill="#455A64"/>
<g opacity="0.3">
<path d="M345.91 256L373 233.645L372.995 228L368.836 228.115L343 251.037L343.057 255.99" fill="white"/>
</g>
<g opacity="0.3">
<path d="M352 255.963L354.503 256L373 239.5L372.979 238.309L372.984 237L352 255.963Z" fill="white"/>
</g>
<path d="M358.137 256C358.063 256 358 250.189 358 243C358 235.811 358.063 230 358.137 230C358.211 230 358.275 235.811 358.275 243C358.275 250.189 358.217 256 358.137 256Z" fill="#263238"/>
<path d="M357 241H355V247H357V241Z" fill="#EBEBEB"/>
<path d="M362 241H360V247H362V241Z" fill="#EBEBEB"/>
<path d="M436 89.1373C436 89.2113 407.353 89.2746 372 89.2746C336.647 89.2746 308 89.2113 308 89.1373C308 89.0634 336.641 89 372 89C407.359 89 436 89.0739 436 89.1373Z" fill="#263238"/>
<path d="M436 82.1373C436 82.2113 407.353 82.2746 372 82.2746C336.647 82.2746 308 82.2113 308 82.1373C308 82.0634 336.641 82 372 82C407.359 82 436 82.0581 436 82.1373Z" fill="#263238"/>
<path d="M394 67.1373C394 67.2113 383.249 67.2746 369.99 67.2746C356.73 67.2746 346 67.2113 346 67.1373C346 67.0634 356.746 67 370.01 67C383.275 67 394 67.0581 394 67.1373Z" fill="#263238"/>
<path d="M314.386 256C314.312 256 314.175 218.837 314.079 173.003C313.984 127.168 313.974 90 314.053 90C314.132 90 314.264 127.152 314.354 173.003C314.444 218.853 314.46 256 314.386 256Z" fill="#263238"/>
<path d="M383.634 224.608V188.969L461.098 66.9091H492.767V115.29H474.393L429.06 187.122V188.599H541.24V224.608H383.634ZM474.947 256V213.713L475.871 198.109V66.9091H518.619V256H474.947Z" fill="#1F1F1F"/>
<path d="M135.066 306.364C132.117 306.364 129.671 305.393 127.73 303.452C125.789 301.492 124.818 299.075 124.818 296.2C124.818 293.325 125.789 290.917 127.73 288.976C129.671 287.016 132.117 286.036 135.066 286.036C136.839 286.036 138.473 286.456 139.966 287.296C141.478 288.136 142.654 289.275 143.494 290.712L140.694 292.336C140.171 291.365 139.406 290.6 138.398 290.04C137.409 289.461 136.298 289.172 135.066 289.172C132.975 289.172 131.277 289.835 129.97 291.16C128.682 292.485 128.038 294.165 128.038 296.2C128.038 298.235 128.682 299.915 129.97 301.24C131.277 302.565 132.975 303.228 135.066 303.228C136.298 303.228 137.418 302.948 138.426 302.388C139.434 301.809 140.19 301.035 140.694 300.064L143.494 301.66C142.673 303.097 141.506 304.245 139.994 305.104C138.501 305.944 136.858 306.364 135.066 306.364ZM156.806 292V294.912H152.242V306H149.218V294.912H144.626V292H156.806ZM166.776 291.636C168.699 291.636 170.341 292.355 171.704 293.792C173.067 295.211 173.748 296.947 173.748 299C173.748 301.072 173.067 302.817 171.704 304.236C170.341 305.655 168.699 306.364 166.776 306.364C164.648 306.364 163.015 305.58 161.876 304.012V311.6H158.852V292H161.876V294.016C163.015 292.429 164.648 291.636 166.776 291.636ZM163.136 302.22C163.976 303.06 165.031 303.48 166.3 303.48C167.569 303.48 168.624 303.06 169.464 302.22C170.304 301.361 170.724 300.288 170.724 299C170.724 297.712 170.304 296.648 169.464 295.808C168.624 294.949 167.569 294.52 166.3 294.52C165.031 294.52 163.976 294.949 163.136 295.808C162.296 296.648 161.876 297.712 161.876 299C161.876 300.288 162.296 301.361 163.136 302.22ZM187.577 292H190.601V306H187.577V303.984C186.438 305.571 184.805 306.364 182.677 306.364C180.754 306.364 179.111 305.655 177.749 304.236C176.386 302.799 175.705 301.053 175.705 299C175.705 296.928 176.386 295.183 177.749 293.764C179.111 292.345 180.754 291.636 182.677 291.636C184.805 291.636 186.438 292.42 187.577 293.988V292ZM179.989 302.22C180.829 303.06 181.883 303.48 183.153 303.48C184.422 303.48 185.477 303.06 186.317 302.22C187.157 301.361 187.577 300.288 187.577 299C187.577 297.712 187.157 296.648 186.317 295.808C185.477 294.949 184.422 294.52 183.153 294.52C181.883 294.52 180.829 294.949 179.989 295.808C179.149 296.648 178.729 297.712 178.729 299C178.729 300.288 179.149 301.361 179.989 302.22ZM203.561 292H206.585V306H203.561V300.428H197.149V306H194.125V292H197.149V297.572H203.561V292ZM220.23 292H222.554V306H219.586V297.096L212.418 306H210.094V292H213.062V300.876L220.23 292ZM238.103 303.144H240.399V309.752H237.431V306H226.063V292H229.087V303.144H235.079V292H238.103V303.144ZM253.393 292H256.417V306H253.393V303.984C252.254 305.571 250.621 306.364 248.493 306.364C246.57 306.364 244.928 305.655 243.565 304.236C242.202 302.799 241.521 301.053 241.521 299C241.521 296.928 242.202 295.183 243.565 293.764C244.928 292.345 246.57 291.636 248.493 291.636C250.621 291.636 252.254 292.42 253.393 293.988V292ZM245.805 302.22C246.645 303.06 247.7 303.48 248.969 303.48C250.238 303.48 251.293 303.06 252.133 302.22C252.973 301.361 253.393 300.288 253.393 299C253.393 297.712 252.973 296.648 252.133 295.808C251.293 294.949 250.238 294.52 248.969 294.52C247.7 294.52 246.645 294.949 245.805 295.808C244.965 296.648 244.545 297.712 244.545 299C244.545 300.288 244.965 301.361 245.805 302.22ZM276.378 292H279.402V306H276.378V300.428H269.966V306H266.942V292H269.966V297.572H276.378V292ZM285.29 300.288C285.514 301.352 286.028 302.173 286.83 302.752C287.633 303.312 288.613 303.592 289.77 303.592C291.376 303.592 292.58 303.013 293.382 301.856L295.874 303.312C294.493 305.347 292.449 306.364 289.742 306.364C287.465 306.364 285.626 305.673 284.226 304.292C282.826 302.892 282.126 301.128 282.126 299C282.126 296.909 282.817 295.164 284.198 293.764C285.58 292.345 287.353 291.636 289.518 291.636C291.572 291.636 293.252 292.355 294.558 293.792C295.884 295.229 296.546 296.975 296.546 299.028C296.546 299.345 296.509 299.765 296.434 300.288H285.29ZM285.262 297.824H293.494C293.289 296.685 292.813 295.827 292.066 295.248C291.338 294.669 290.48 294.38 289.49 294.38C288.37 294.38 287.437 294.688 286.69 295.304C285.944 295.92 285.468 296.76 285.262 297.824ZM315.643 292H318.667V306H315.643V300.428H309.231V306H306.207V292H309.231V297.572H315.643V292ZM333.264 292H336.288V306H333.264V303.984C332.125 305.571 330.492 306.364 328.364 306.364C326.441 306.364 324.799 305.655 323.436 304.236C322.073 302.799 321.392 301.053 321.392 299C321.392 296.928 322.073 295.183 323.436 293.764C324.799 292.345 326.441 291.636 328.364 291.636C330.492 291.636 332.125 292.42 333.264 293.988V292ZM325.676 302.22C326.516 303.06 327.571 303.48 328.84 303.48C330.109 303.48 331.164 303.06 332.004 302.22C332.844 301.361 333.264 300.288 333.264 299C333.264 297.712 332.844 296.648 332.004 295.808C331.164 294.949 330.109 294.52 328.84 294.52C327.571 294.52 326.516 294.949 325.676 295.808C324.836 296.648 324.416 297.712 324.416 299C324.416 300.288 324.836 301.361 325.676 302.22ZM342.109 290.04V287.408H349.949V290.04H342.109ZM349.949 292H352.273V306H349.305V297.096L342.137 306H339.813V292H342.781V300.876L349.949 292ZM368.102 303.144H369.978V309.752H367.01V306H357.406V309.752H354.438V303.144H356.146C357.004 301.931 357.434 300.241 357.434 298.076V292H368.102V303.144ZM359.478 303.144H365.134V294.772H360.402V298.076C360.402 300.073 360.094 301.763 359.478 303.144ZM374.267 300.288C374.491 301.352 375.004 302.173 375.807 302.752C376.61 303.312 377.59 303.592 378.747 303.592C380.352 303.592 381.556 303.013 382.359 301.856L384.851 303.312C383.47 305.347 381.426 306.364 378.719 306.364C376.442 306.364 374.603 305.673 373.203 304.292C371.803 302.892 371.103 301.128 371.103 299C371.103 296.909 371.794 295.164 373.175 293.764C374.556 292.345 376.33 291.636 378.495 291.636C380.548 291.636 382.228 292.355 383.535 293.792C384.86 295.229 385.523 296.975 385.523 299.028C385.523 299.345 385.486 299.765 385.411 300.288H374.267ZM374.239 297.824H382.471C382.266 296.685 381.79 295.827 381.043 295.248C380.315 294.669 379.456 294.38 378.467 294.38C377.347 294.38 376.414 294.688 375.667 295.304C374.92 295.92 374.444 296.76 374.239 297.824ZM397.62 292H400.644V306H397.62V300.428H391.208V306H388.184V292H391.208V297.572H397.62V292ZM415.241 292H418.265V306H415.241V303.984C414.102 305.571 412.469 306.364 410.341 306.364C408.418 306.364 406.775 305.655 405.413 304.236C404.05 302.799 403.369 301.053 403.369 299C403.369 296.928 404.05 295.183 405.413 293.764C406.775 292.345 408.418 291.636 410.341 291.636C412.469 291.636 414.102 292.42 415.241 293.988V292ZM407.653 302.22C408.493 303.06 409.547 303.48 410.817 303.48C412.086 303.48 413.141 303.06 413.981 302.22C414.821 301.361 415.241 300.288 415.241 299C415.241 297.712 414.821 296.648 413.981 295.808C413.141 294.949 412.086 294.52 410.817 294.52C409.547 294.52 408.493 294.949 407.653 295.808C406.813 296.648 406.393 297.712 406.393 299C406.393 300.288 406.813 301.361 407.653 302.22ZM425.093 305.72C424.683 306.131 424.188 306.336 423.609 306.336C423.031 306.336 422.536 306.131 422.125 305.72C421.715 305.309 421.509 304.815 421.509 304.236C421.509 303.657 421.705 303.163 422.097 302.752C422.508 302.341 423.012 302.136 423.609 302.136C424.188 302.136 424.683 302.341 425.093 302.752C425.504 303.163 425.709 303.657 425.709 304.236C425.709 304.815 425.504 305.309 425.093 305.72Z" fill="#1F1F1F"/>
</svg>
